<?xml version="1.0" encoding="utf-8"?>
<!-- Generator: Adobe Illustrator 22.1.0, SVG Export Plug-In . SVG Version: 6.00 Build 0)  -->
<svg version="1.1" id="Livello_1" xmlns="http://www.w3.org/2000/svg" xmlns:xlink="http://www.w3.org/1999/xlink" x="0px" y="0px"
	 viewBox="0 0 1920 1080" style="enable-background:new 0 0 1920 1080;" xml:space="preserve">
<style type="text/css">
	.st0{fill:#FFFFFF;}
</style>
<g>
	<path class="st0" d="M1071.5,689.5c-0.3-10.5-8.9-19-19.5-19s-19.2,8.5-19.5,19H482.5c-12.1,0-22-9.9-22-22V412.5
		c0-12.1,9.9-22,22-22h550.1c0.3,10.5,8.9,19,19.5,19s19.2-8.5,19.5-19h366.1c12.1,0,22,9.9,22,22v255.1c0,12.1-9.9,22-22,22H1071.5
		z"/>
	<path d="M1437.5,391c11.8,0,21.5,9.6,21.5,21.5v255.1c0,11.8-9.6,21.5-21.5,21.5H1072c-0.5-10.6-9.3-19-20-19s-19.4,8.4-20,19
		H482.5c-11.8,0-21.5-9.6-21.5-21.5V412.5c0-11.8,9.6-21.5,21.5-21.5H1032c0.5,10.6,9.3,19,20,19s19.4-8.4,20-19H1437.5 M1437.5,390
		H1071c0,10.5-8.5,19-19,19s-19-8.5-19-19H482.5c-12.4,0-22.5,10.1-22.5,22.5v255.1c0,12.4,10.1,22.5,22.5,22.5H1033
		c0-10.5,8.5-19,19-19s19,8.5,19,19h366.5c12.4,0,22.5-10.1,22.5-22.5V412.5C1460,400.1,1449.9,390,1437.5,390L1437.5,390z"/>
</g>
</svg>
