<svg id="Livello_1" data-name="Livello 1" xmlns="http://www.w3.org/2000/svg" width="13.33" height="13" viewBox="0 0 13.33 13"><defs><style>.cls-1{fill:#a5a5a5;}</style></defs><title>github</title><path class="cls-1" d="M6.5,0A6.67,6.67,0,0,0,4.39,13c.34.06.46-.14.46-.32s0-.68,0-1.24c-1.67.31-2.11-.41-2.24-.78a2.28,2.28,0,0,0-.68-.94c-.23-.13-.57-.44,0-.45a1.35,1.35,0,0,1,1,.69,1.45,1.45,0,0,0,1.95.55,1.33,1.33,0,0,1,.42-.89c-1.48-.17-3-.75-3-3.3A2.63,2.63,0,0,1,3,4.52,2.35,2.35,0,0,1,3,2.76s.56-.18,1.83.68a6.17,6.17,0,0,1,1.67-.22,6.15,6.15,0,0,1,1.66.22C9.46,2.57,10,2.76,10,2.76a2.38,2.38,0,0,1,.06,1.76,2.57,2.57,0,0,1,.69,1.79c0,2.56-1.56,3.13-3,3.3a1.52,1.52,0,0,1,.45,1.23v1.83c0,.18.12.38.45.32A6.67,6.67,0,0,0,6.5,0Z" transform="translate(0.16)"/></svg>