<svg xmlns="http://www.w3.org/2000/svg" xmlns:xlink="http://www.w3.org/1999/xlink" width="92.64" height="51.29" viewBox="0 0 92.64 51.29"><defs><style>.cls-1{fill:none;}.cls-2{fill:#a5a5a5;}.cls-3{fill:#fff;}.cls-4{opacity:0.2;isolation:isolate;}.cls-5{clip-path:url(#clip-path);}</style><clipPath id="clip-path"><rect class="cls-1" x="0.3" y="9.42" width="22.5" height="18.14"/></clipPath></defs><title>logo-grey</title><g id="Livello_2" data-name="Livello 2"><g id="Livello_1-2" data-name="Livello 1"><polygon class="cls-2" points="16.89 38.4 13.88 33.19 6.64 45.7 12.84 45.7 16.97 38.55 16.89 38.4"/><path class="cls-3" d="M12.84,45.82H6.65a.11.11,0,0,1-.11-.06.11.11,0,0,1,0-.13l7.23-12.5a.12.12,0,0,1,.11-.07h0a.14.14,0,0,1,.11.07l3.09,5.35a.11.11,0,0,1,0,.13L13,45.76A.11.11,0,0,1,12.84,45.82Zm-6-.25h5.91l4.06-7,0-.08-2.9-5Z"/><polygon class="cls-2" points="10.62 27.56 13.88 33.19 6.64 45.7 0.13 45.7 10.62 27.56"/><path class="cls-3" d="M6.65,45.82H.13A.11.11,0,0,1,0,45.76a.11.11,0,0,1,0-.13L10.51,27.49a.14.14,0,0,1,.22,0L14,33.13a.13.13,0,0,1,0,.12L6.75,45.76A.11.11,0,0,1,6.65,45.82Zm-6.3-.25H6.57l7.16-12.38-3.11-5.38Z"/><polygon class="cls-2" points="6.64 9.42 0.13 9.42 16.97 38.55 20.23 32.91 20.23 32.91 6.64 9.42"/><path class="cls-3" d="M17,38.67a.14.14,0,0,1-.11-.06L0,9.48a.11.11,0,0,1,0-.13.14.14,0,0,1,.11-.06H6.65a.11.11,0,0,1,.1.06l13.59,23.5a.13.13,0,0,1,0,.12l-3.26,5.64A.11.11,0,0,1,17,38.67ZM.35,9.54,17,38.29l3.12-5.38L6.57,9.54Z"/><path class="cls-2" d="M22.34,29.26a3.39,3.39,0,0,0,0-3.4L12.84,9.42H6.65L20.23,32.91Z"/><path class="cls-3" d="M20.23,33a.15.15,0,0,1-.11-.07L6.54,9.48a.11.11,0,0,1,0-.13.14.14,0,0,1,.11-.06h6.19a.11.11,0,0,1,.11.06l9.5,16.44a3.53,3.53,0,0,1,0,3.53L20.34,33A.12.12,0,0,1,20.23,33ZM6.86,9.54,20.23,32.66l2-3.46a3.31,3.31,0,0,0,0-3.28L12.77,9.54Z"/><g class="cls-4"><g class="cls-5"><path class="cls-3" d="M12.92,9.7,22.35,26a3.3,3.3,0,0,1,.44,1.55,3.38,3.38,0,0,0-.44-1.83L12.92,9.42H.3l.16.28Z"/></g></g><path class="cls-2" d="M43.87,10.35h4.72c4.8,0,7.81,3.19,7.81,7.66s-3,7.66-7.81,7.66H43.87Zm4.8,13c3.34,0,5.41-1.86,5.41-5.34S52,12.67,48.67,12.67H46.19V23.35Z"/><path class="cls-2" d="M41.93,17.32H34.59v2.27h5.18a4.67,4.67,0,0,1-1.18,2.67,5.39,5.39,0,0,1-4.07,1.61,5.86,5.86,0,0,1,0-11.72,5.59,5.59,0,0,1,4,1.58l1.56-1.55A7.69,7.69,0,0,0,34.52,10,8.18,8.18,0,0,0,26.34,18a8.18,8.18,0,0,0,8.18,8.07,7.34,7.34,0,0,0,5.62-2.27,7.25,7.25,0,0,0,1.91-5.15,6.67,6.67,0,0,0-.12-1.34"/><path class="cls-2" d="M73.5,17.32H66.15v2.27h5.18a4.67,4.67,0,0,1-1.18,2.67,5.36,5.36,0,0,1-4.07,1.61,5.86,5.86,0,0,1,0-11.72,5.59,5.59,0,0,1,4,1.58l1.56-1.55A7.69,7.69,0,0,0,66.08,10,8.18,8.18,0,0,0,57.9,18a8.18,8.18,0,0,0,8.18,8.07,7.38,7.38,0,0,0,5.63-2.27,7.28,7.28,0,0,0,1.9-5.15,7.56,7.56,0,0,0-.11-1.34"/><path class="cls-2" d="M32.06,32.69V45.47H30.34V32.69H26.23V31.15h9.94v1.54Z"/><path class="cls-2" d="M41.31,45.65a5.58,5.58,0,1,1,5.57-5.58A5.57,5.57,0,0,1,41.31,45.65Zm0-9.51a3.94,3.94,0,1,0,3.85,3.93A3.85,3.85,0,0,0,41.31,36.14Z"/><path class="cls-2" d="M51.25,40.48v5H49.53V34.67h1.72v1.9a4.42,4.42,0,0,1,3.66-2.07v1.68A4,4,0,0,0,51.25,40.48Z"/><path class="cls-2" d="M58,32.59a1.19,1.19,0,1,1,1.18-1.18A1.19,1.19,0,0,1,58,32.59Zm-.86,12.88V34.67h1.72v10.8Z"/><path class="cls-2" d="M70.16,45.47V39.39c0-2-1.25-3.25-2.93-3.25a3,3,0,0,0-3,3.25v6.08H62.52V34.67h1.72v1.4A3.78,3.78,0,0,1,67.4,34.5c2.48,0,4.47,1.72,4.47,4.78v6.19Z"/><path class="cls-2" d="M80,45.65a5.58,5.58,0,1,1,5.57-5.58A5.57,5.57,0,0,1,80,45.65Zm0-9.51a3.94,3.94,0,1,0,3.85,3.93A3.85,3.85,0,0,0,80,36.14Z"/><path class="cls-2" d="M80.24,0,77.77,22.52l-1.49,2.63-.54,5.59a16.74,16.74,0,0,0-3.65,4.06l1.49,1s2.08-3.23,3.77-4c0,0,.78-5.69.7-6.09l1.4-2.59.79-7.82.91.13L80.73,4.1Z"/><path class="cls-2" d="M90.66,44.67S89.35,36,83.45,32.06l-.72-6.39-1.37-2.56-1.12-7.85V0l2.7,22.56,1.54,2.54.57,5.82s6,4.19,7.59,14.73l-.72.32-1.73-1.09Z"/><polygon class="cls-2" points="80.07 49.43 90.66 44.66 92.64 45.65 80.07 51.29 79.27 50.92 79.27 49.12 80.07 49.43"/><polygon class="cls-2" points="74.87 46.96 74.14 48.59 80.07 51.29 80.07 49.43 74.87 46.96"/></g></g></svg>