<svg id="Livello_1" data-name="Livello 1" xmlns="http://www.w3.org/2000/svg" width="16.38" height="13" viewBox="0 0 16.38 13"><defs><style>.cls-1{fill:#a5a5a5;}</style></defs><title>medium</title><path class="cls-1" d="M.64,2.64a.62.62,0,0,0-.21-.53L-1.1.26V0H3.65L7.32,8l3.22-8h4.53V.26L13.76,1.52a.37.37,0,0,0-.14.37V11.1a.36.36,0,0,0,.14.36L15,12.72V13H8.62v-.27l1.32-1.29c.13-.13.13-.17.13-.37V3.62L6.39,13H5.9L1.61,3.62V9.88a.91.91,0,0,0,.24.72l1.72,2.08V13H-1.31v-.28L.41,10.6a.84.84,0,0,0,.23-.72V2.64Z" transform="translate(1.31 0.01)"/></svg>