<svg id="Livello_1" data-name="Livello 1" xmlns="http://www.w3.org/2000/svg" width="17.28" height="11.97" viewBox="0 0 17.28 11.97"><defs><style>.cls-1{fill:#303f9f;}.cls-2{fill:#3f51b5;}.cls-3{fill:#7986cb;}.cls-4{fill:#ff4081;}.cls-5{fill:#536dfe;}.cls-6,.cls-7,.cls-8{fill:#fff;}.cls-10,.cls-6{fill-opacity:0.2;}.cls-7,.cls-9{fill-opacity:0.1;}.cls-8{fill-opacity:0;}.cls-11{fill-opacity:0.3;}.cls-12{fill-opacity:0.4;}.cls-13{fill-opacity:0.5;}</style></defs><title>polymer</title><path class="cls-1" d="M.82,6-.91,9,.82,12,2.54,9Z" transform="translate(2.64 -0.01)"/><path class="cls-2" d="M11.18,0,9.46,3l1.72,3,1.73-3Z" transform="translate(2.64 -0.01)"/><path class="cls-3" d="M12.91,3,7.73,12h3.45l3.46-6Z" transform="translate(2.64 -0.01)"/><path class="cls-4" d="M7.73,0,.82,12H4.27L11.18,0Z" transform="translate(2.64 -0.01)"/><path class="cls-5" d="M.82,0-2.64,6-.91,9,4.27,0Z" transform="translate(2.64 -0.01)"/><path class="cls-6" d="M7.73,0,9.46,3l1.72-3Z" transform="translate(2.64 -0.01)"/><path class="cls-7" d="M6,3,7.73,0,9.46,3Z" transform="translate(2.64 -0.01)"/><path class="cls-8" d="M6,3,7.73,6,9.46,3Z" transform="translate(2.64 -0.01)"/><path class="cls-9" d="M4.27,6,6,3,7.73,6Z" transform="translate(2.64 -0.01)"/><path class="cls-10" d="M4.27,6,6,9,7.73,6Z" transform="translate(2.64 -0.01)"/><path class="cls-11" d="M2.54,9,4.27,6,6,9Z" transform="translate(2.64 -0.01)"/><path class="cls-12" d="M2.54,9l1.73,3L6,9Z" transform="translate(2.64 -0.01)"/><path class="cls-13" d="M.82,12,2.54,9l1.73,3Z" transform="translate(2.64 -0.01)"/><path class="cls-6" d="M.82,0,2.54,3,4.27,0Z" transform="translate(2.64 -0.01)"/><path class="cls-7" d="M-.91,3,.82,0,2.54,3Z" transform="translate(2.64 -0.01)"/><path class="cls-8" d="M-.91,3,.82,6,2.54,3Z" transform="translate(2.64 -0.01)"/><path class="cls-9" d="M-2.64,6-.91,3,.82,6Z" transform="translate(2.64 -0.01)"/><path class="cls-10" d="M-2.64,6-.91,9,.82,6Z" transform="translate(2.64 -0.01)"/><path class="cls-8" d="M2.54,9,.82,6-.91,9Z" transform="translate(2.64 -0.01)"/><path class="cls-10" d="M2.54,9,.82,12-.91,9ZM12.91,3,11.18,0,9.46,3Z" transform="translate(2.64 -0.01)"/><path class="cls-8" d="M12.91,3,11.18,6,9.46,3Z" transform="translate(2.64 -0.01)"/><path class="cls-6" d="M11.18,6l1.73-3,1.73,3Z" transform="translate(2.64 -0.01)"/><path class="cls-7" d="M11.18,6l1.73,3,1.73-3Z" transform="translate(2.64 -0.01)"/><path class="cls-8" d="M9.46,9l1.72-3,1.73,3Z" transform="translate(2.64 -0.01)"/><path class="cls-9" d="M9.46,9l1.72,3,1.73-3Z" transform="translate(2.64 -0.01)"/><path class="cls-10" d="M7.73,12,9.46,9l1.72,3Z" transform="translate(2.64 -0.01)"/></svg>