<svg id="Livello_1" data-name="Livello 1" xmlns="http://www.w3.org/2000/svg" width="16" height="13" viewBox="0 0 16 13"><defs><style>.cls-1{fill:#a5a5a5;}</style></defs><title>twitter</title><path class="cls-1" d="M14.5,1.54a7.05,7.05,0,0,1-1.89.52A3.26,3.26,0,0,0,14.05.24,6.47,6.47,0,0,1,12,1,3.28,3.28,0,0,0,6.3,3.28,3.08,3.08,0,0,0,6.38,4,9.29,9.29,0,0,1-.39.6,3.32,3.32,0,0,0-.83,2.26,3.28,3.28,0,0,0,.62,5a3.27,3.27,0,0,1-1.48-.4v0A3.3,3.3,0,0,0,1.77,7.84,3.43,3.43,0,0,1,.91,8a3.18,3.18,0,0,1-.62-.06,3.3,3.3,0,0,0,3.06,2.28,6.53,6.53,0,0,1-4.07,1.4,6.79,6.79,0,0,1-.78,0,9.19,9.19,0,0,0,5,1.47,9.27,9.27,0,0,0,9.34-9.33c0-.15,0-.29,0-.43A6.63,6.63,0,0,0,14.5,1.54Z" transform="translate(1.5)"/></svg>